<svg id="Vrstva_1" data-name="Vrstva 1" xmlns="http://www.w3.org/2000/svg" xmlns:xlink="http://www.w3.org/1999/xlink" viewBox="0 0 196.24 132.04"><defs><style>.cls-1{fill:url(#Nepojmenovaný_přechod_4);}.cls-2{fill:#fff;}</style><linearGradient id="Nepojmenovaný_přechod_4" x1="400.09" y1="159.42" x2="469.65" y2="159.42" gradientUnits="userSpaceOnUse"><stop offset="0" stop-color="#9f69a4"/><stop offset="1" stop-color="#87c2e6"/></linearGradient></defs><title>logo_white</title><path class="cls-1" d="M459.6,183.75c6.38-7,10-16.88,10-28.71,0-14.32-5.46-26.7-14.92-33.61-6.43-4.73-15.65-7.28-26-7.28H411.29c-4.25,0-7,1.21-9.22,4.13-1.58,2.18-1.94,3.64-1.94,9.34v53.75c-0.49,9.59,3.64,13.83,13.35,13.47l18.08,0.24a40.83,40.83,0,0,0,13.74-2l16,11.65Z" transform="translate(-336.7 -114.15)"/><path class="cls-2" d="M447.53,132.81c-4-3-9.78-4.55-16.23-4.55H420.38c-2.65,0-4.4.76-5.76,2.58-1,1.36-1.21,2.28-1.21,5.84v33.59c0,0.5,0,1,0,1.42l-3.92,12.46,12.06-5.44,0,0h0.24l11.3,0.15c14.18,0.23,23.81-9.86,23.81-25C456.86,144.87,453.45,137.13,447.53,132.81Z" transform="translate(-336.7 -114.15)"/><path class="cls-2" d="M336.7,222.67H347a11.74,11.74,0,0,1,0,23.48H336.7V222.67Zm2.93,20.55h7.24a8.81,8.81,0,1,0,0-17.62h-7.24v17.62Z" transform="translate(-336.7 -114.15)"/><path class="cls-2" d="M376.75,233.59H369a4.79,4.79,0,0,0-4.83,4.8,4.6,4.6,0,0,0,1.42,3.4,4.68,4.68,0,0,0,3.42,1.4h7.77v3H369a7.75,7.75,0,0,1-7.77-7.77,7.56,7.56,0,0,1,2.26-5.5,7.44,7.44,0,0,1,5.5-2.29h7.77v3Zm-8.81,5.82a1.47,1.47,0,0,1,1-2.51h3.9v2.93H369A1.42,1.42,0,0,1,367.94,239.4Z" transform="translate(-336.7 -114.15)"/><path class="cls-2" d="M400.23,230.59a7.47,7.47,0,0,1,5.5,2.28,7.54,7.54,0,0,1,2.26,5.52v7.77h-2.9v-7.77a4.63,4.63,0,0,0-1.43-3.42,4.9,4.9,0,0,0-6.8-.09,4.64,4.64,0,0,0-1.5,3.26v8h-2.93v-8a4.64,4.64,0,0,0-1.5-3.26,4.7,4.7,0,0,0-3.34-1.33,4.79,4.79,0,0,0-4.8,4.83v7.77h-3v-7.77a7.54,7.54,0,0,1,2.26-5.52,7.47,7.47,0,0,1,5.5-2.28,7.56,7.56,0,0,1,6.33,3.24,7.65,7.65,0,0,1,2.71-2.37A7.57,7.57,0,0,1,400.23,230.59Z" transform="translate(-336.7 -114.15)"/><path class="cls-2" d="M426.18,238.36v7.83h-2.93V244.5a7.78,7.78,0,0,1-4.87,1.68A7.83,7.83,0,1,1,426.18,238.36Zm-11.24,3.43a4.84,4.84,0,1,0-1.42-3.43A4.67,4.67,0,0,0,414.94,241.79Z" transform="translate(-336.7 -114.15)"/><path class="cls-2" d="M431.55,232.79a7.87,7.87,0,0,1,11.09,0,7.49,7.49,0,0,1,2.29,5.52v7.86h-3V238.3a4.85,4.85,0,0,0-4.83-4.87,4.74,4.74,0,0,0-3.46,1.42,4.67,4.67,0,0,0-1.43,3.45v7.86h-3V238.3A7.48,7.48,0,0,1,431.55,232.79Z" transform="translate(-336.7 -114.15)"/><path class="cls-2" d="M463.2,222.76l-0.06,15.59a7.58,7.58,0,0,1-2.34,5.52,7.74,7.74,0,0,1-11-.11,7.83,7.83,0,0,1,.08-11.06,7.46,7.46,0,0,1,5.54-2.25,7.86,7.86,0,0,1,4.87,1.72v-9.45Zm-7.83,10.67a4.62,4.62,0,0,0-3.43,1.37,4.72,4.72,0,0,0-1.47,3.43,4.62,4.62,0,0,0,1.4,3.45,4.77,4.77,0,0,0,3.43,1.48,4.57,4.57,0,0,0,3.43-1.4,4.79,4.79,0,0,0,1.47-3.43,4.6,4.6,0,0,0-1.39-3.43A4.78,4.78,0,0,0,455.38,233.43Z" transform="translate(-336.7 -114.15)"/><path class="cls-2" d="M481.39,233.59h-7.77a4.79,4.79,0,0,0-4.83,4.8,4.6,4.6,0,0,0,1.42,3.4,4.68,4.68,0,0,0,3.42,1.4h7.77v3h-7.77a7.75,7.75,0,0,1-7.77-7.77,7.56,7.56,0,0,1,2.26-5.5,7.44,7.44,0,0,1,5.5-2.29h7.77v3Zm-8.81,5.82a1.47,1.47,0,0,1,1-2.51h3.9v2.93h-3.9A1.42,1.42,0,0,1,472.58,239.4Z" transform="translate(-336.7 -114.15)"/><path class="cls-2" d="M484.5,246.16v-7.92a7.44,7.44,0,0,1,2.31-5.44,7.56,7.56,0,0,1,5.49-2.23v2.93a4.9,4.9,0,0,0-4.87,4.87v7.8H484.5Z" transform="translate(-336.7 -114.15)"/><path class="cls-2" d="M496.51,243.66a1.43,1.43,0,1,1-1-.44A1.41,1.41,0,0,1,496.51,243.66Z" transform="translate(-336.7 -114.15)"/><path class="cls-2" d="M501,243.88a7.87,7.87,0,0,1,0-11.09,7.49,7.49,0,0,1,5.52-2.29h7.86v3h-7.86a4.84,4.84,0,0,0-4.87,4.83,4.74,4.74,0,0,0,1.42,3.46,4.67,4.67,0,0,0,3.45,1.43h7.86v3h-7.86A7.48,7.48,0,0,1,501,243.88Z" transform="translate(-336.7 -114.15)"/><path class="cls-2" d="M525.21,239.89a4.82,4.82,0,0,0-4.58,3.34h12.29v2.93H517.47v-1.47a7.72,7.72,0,0,1,7.73-7.73,4.67,4.67,0,0,0,2.89-1,4.61,4.61,0,0,0,1.7-2.48H517.5v-2.9h15.44v1.53A7.72,7.72,0,0,1,525.21,239.89Z" transform="translate(-336.7 -114.15)"/></svg>