<?xml version="1.0" encoding="UTF-8"?>
<svg width="18px" height="16px" viewBox="0 0 18 16" version="1.1" xmlns="http://www.w3.org/2000/svg" xmlns:xlink="http://www.w3.org/1999/xlink">
    <!-- Generator: sketchtool 43.2 (39069) - http://www.bohemiancoding.com/sketch -->
    <title>31ED0A71-C702-41DB-ABAB-8082C6F40AC1</title>
    <desc>Created with sketchtool.</desc>
    <defs></defs>
    <g id="CMS" stroke="none" stroke-width="1" fill="none" fill-rule="evenodd">
        <g id="Vytvorit-otazku-MVP" transform="translate(-1040.000000, -524.000000)" fill-rule="nonzero" fill="#007AFF">
            <g id="Calendar" transform="translate(1040.000000, 524.000000)">
                <path d="M15.0571429,1.08571429 L13.2285714,1.08571429 L13.2285714,0.571428571 C13.2285714,0.257142857 12.9714286,0 12.6571429,0 C12.3428571,0 12.0857143,0.257142857 12.0857143,0.571428571 L12.0857143,1.08571429 L9.17142857,1.08571429 L9.17142857,0.571428571 C9.17142857,0.257142857 8.91428571,0 8.6,0 C8.28571429,0 8.02857143,0.257142857 8.02857143,0.571428571 L8.02857143,1.08571429 L5.11428571,1.08571429 L5.11428571,0.571428571 C5.11428571,0.257142857 4.85714286,0 4.54285714,0 C4.22857143,0 3.97142857,0.257142857 3.97142857,0.571428571 L3.97142857,1.08571429 L2.14285714,1.08571429 C0.971428571,1.08571429 0,2.05714286 0,3.22857143 L0,13.8571429 C0,15.0285714 0.971428571,16 2.14285714,16 L15.0571429,16 C16.2285714,16 17.2,15.0285714 17.2,13.8571429 L17.2,3.22857143 C17.2,2.05714286 16.2285714,1.08571429 15.0571429,1.08571429 Z M16.0571429,13.8571429 C16.0571429,14.4 15.6,14.8571429 15.0571429,14.8571429 L2.14285714,14.8571429 C1.6,14.8571429 1.14285714,14.4 1.14285714,13.8571429 L1.14285714,6.77142857 L16.0571429,6.77142857 L16.0571429,13.8571429 Z M16.0571429,5.62857143 L1.14285714,5.62857143 L1.14285714,3.22857143 C1.14285714,2.68571429 1.6,2.22857143 2.14285714,2.22857143 L3.97142857,2.22857143 L3.97142857,2.74285714 C3.97142857,3.05714286 4.22857143,3.31428571 4.54285714,3.31428571 C4.85714286,3.31428571 5.11428571,3.05714286 5.11428571,2.74285714 L5.11428571,2.22857143 L8.02857143,2.22857143 L8.02857143,2.74285714 C8.02857143,3.05714286 8.28571429,3.31428571 8.6,3.31428571 C8.91428571,3.31428571 9.17142857,3.05714286 9.17142857,2.74285714 L9.17142857,2.22857143 L12.0857143,2.22857143 L12.0857143,2.74285714 C12.0857143,3.05714286 12.3428571,3.31428571 12.6571429,3.31428571 C12.9714286,3.31428571 13.2285714,3.05714286 13.2285714,2.74285714 L13.2285714,2.22857143 L15.0571429,2.22857143 C15.6,2.22857143 16.0571429,2.68571429 16.0571429,3.22857143 L16.0571429,5.62857143 Z" id="Shape"></path>
            </g>
        </g>
    </g>
</svg>