<?xml version="1.0" standalone="no"?>
<!DOCTYPE svg PUBLIC "-//W3C//DTD SVG 20010904//EN"
 "http://www.w3.org/TR/2001/REC-SVG-20010904/DTD/svg10.dtd">
<svg version="1.0" xmlns="http://www.w3.org/2000/svg"
 width="16.000000pt" height="16.000000pt" viewBox="0 0 16.000000 16.000000"
 preserveAspectRatio="xMidYMid meet">
<metadata>
Created by potrace 1.11, written by Peter Selinger 2001-2013
</metadata>
<g transform="translate(0.000000,16.000000) scale(0.004000,-0.004000)"
fill="#000000" stroke="none">
<path d="M246 2700 c-53 -24 -86 -79 -81 -136 13 -151 261 -137 280 15 13 101
-96 167 -199 121z"/>
<path d="M1510 2644 c-5 -13 -16 -60 -24 -106 -9 -46 -27 -137 -41 -203 -14
-66 -27 -137 -30 -158 -2 -21 -9 -54 -15 -75 -6 -20 -17 -71 -25 -112 -16 -85
-22 -114 -29 -138 -3 -9 -8 -39 -12 -67 -7 -59 -15 -70 -65 -96 -95 -48 -128
-10 -102 119 12 64 37 197 50 272 20 117 -9 225 -72 269 -75 51 -253 12 -344
-76 -13 -13 -27 -23 -30 -23 -4 0 -6 21 -6 46 1 25 -3 48 -9 51 -11 7 -186 7
-193 0 -2 -3 -7 -20 -9 -39 -3 -18 -12 -58 -20 -89 -7 -31 -16 -76 -19 -100
-3 -24 -10 -61 -16 -81 -5 -20 -12 -56 -15 -80 -3 -24 -9 -56 -14 -73 -5 -16
-14 -57 -20 -90 -14 -70 -21 -80 -71 -106 -52 -26 -95 -25 -110 3 -13 24 -6
101 16 188 7 30 17 75 20 100 3 25 10 61 15 80 5 19 11 53 15 75 3 22 12 64
19 95 8 30 16 70 20 88 6 36 13 34 -104 33 -164 -1 -147 5 -154 -46 -4 -25 -7
-48 -8 -52 0 -5 -4 -15 -8 -23 -4 -8 -11 -37 -14 -65 -4 -27 -11 -66 -16 -85
-5 -19 -12 -55 -15 -80 -4 -25 -16 -83 -27 -129 -43 -184 -29 -278 51 -320 57
-31 209 -3 313 58 l36 22 -1 -38 -2 -38 120 0 120 0 12 55 c7 30 14 73 17 95
3 22 18 108 34 192 32 172 51 209 119 243 80 40 120 7 108 -89 -4 -31 -9 -69
-11 -85 -2 -16 -8 -45 -13 -65 -5 -20 -12 -52 -15 -71 -3 -19 -10 -57 -15 -84
-11 -60 6 -136 39 -171 12 -13 38 -27 59 -32 77 -19 267 24 308 69 15 17 18
16 47 -18 26 -30 43 -39 90 -48 108 -22 247 10 326 75 l34 29 31 -29 c90 -86
265 -108 394 -49 45 20 146 117 157 150 3 10 8 18 12 17 4 0 25 -28 47 -62 45
-69 98 -110 165 -127 46 -12 132 -14 183 -5 15 3 37 7 50 9 85 16 191 106 231
197 45 102 71 231 67 330 -1 32 2 38 25 43 27 7 73 37 108 70 26 26 31 9 12
-46 -8 -24 -17 -64 -21 -89 -3 -24 -10 -60 -15 -79 -5 -19 -11 -51 -14 -70 -2
-19 -11 -64 -20 -100 -8 -36 -17 -83 -21 -105 -3 -22 -10 -56 -15 -75 -5 -19
-11 -56 -14 -81 -3 -25 -10 -59 -16 -75 -6 -16 -11 -30 -10 -32 1 -1 -3 -26
-9 -55 -5 -28 -12 -67 -15 -84 l-5 -33 124 0 c68 0 126 3 129 8 2 4 7 28 11
52 3 25 11 63 17 85 19 76 22 91 27 194 1 9 9 5 25 -12 43 -46 83 -60 157 -54
37 3 89 16 115 28 77 34 212 181 223 241 1 4 10 28 21 53 32 76 45 224 26 320
-11 61 -63 144 -93 151 -13 4 -23 10 -23 15 0 4 -17 11 -37 16 -90 17 -178 -7
-247 -68 l-35 -30 -3 42 -3 43 -108 -2 -108 -1 -49 -50 c-27 -28 -61 -53 -76
-57 -42 -11 -122 13 -167 50 -121 97 -244 103 -404 18 -45 -23 -173 -145 -173
-165 -1 -7 -13 11 -28 40 -84 162 -233 221 -411 162 -39 -12 -71 -26 -71 -31
0 -4 -6 -8 -13 -8 -11 0 -88 -70 -112 -102 -36 -49 -62 -105 -80 -173 -19 -72
-18 -202 2 -263 16 -49 11 -58 -56 -87 -95 -42 -125 2 -95 140 8 39 22 107 30
153 8 46 19 94 24 107 5 14 12 46 16 72 3 27 17 100 30 163 14 63 31 149 39
190 8 41 19 92 24 113 5 20 8 38 7 38 0 1 -56 2 -124 4 -121 2 -124 1 -132
-21z m2191 -470 c23 -21 34 -71 31 -148 -2 -96 -48 -211 -105 -264 -34 -32
-98 -40 -133 -17 -24 15 -25 21 -20 63 3 26 13 79 21 117 9 39 18 88 21 109 6
46 37 117 58 135 19 16 66 29 90 25 10 -2 27 -11 37 -20z m-1531 -39 c20 -13
50 -57 92 -135 l35 -65 -21 -30 c-106 -151 -226 -192 -274 -94 -28 56 -24 194
8 261 34 72 104 100 160 63z m666 9 c61 -29 75 -106 44 -239 -12 -55 -26 -80
-65 -119 -21 -21 -33 -24 -77 -23 -46 2 -58 7 -86 36 -17 19 -32 37 -32 42 0
4 -6 14 -14 21 -7 8 -21 28 -30 46 -15 30 -15 34 1 59 18 29 22 34 92 107 34
36 110 86 129 86 2 0 19 -7 38 -16z"/>
</g>
</svg>
